<svg xmlns="http://www.w3.org/2000/svg" width="30.945" height="30.945" viewBox="0 0 30.945 30.945"><defs><style>.a{fill:#aeb5b2;}</style></defs><g transform="translate(0 8.34) rotate(-45)"><path class="a" d="M7.773,9.545l2.916-.31a1.211,1.211,0,0,0,1.084-1.206l-.006-6.185A1.219,1.219,0,0,0,10.656.633L3.518,0A1.211,1.211,0,0,0,2.251.862s-.541,1.585-.87,2.885a54.4,54.4,0,0,0,.025,24.472c.332,1.3.876,2.886.876,2.886a1.216,1.216,0,0,0,1.268.859l7.137-.613A1.212,1.212,0,0,0,11.8,30.141l-.006-6.186A1.218,1.218,0,0,0,10.7,22.747l-2.917-.315A1.218,1.218,0,0,1,6.7,21.326a30.838,30.838,0,0,1-.456-5.339,30.807,30.807,0,0,1,.445-5.338A1.212,1.212,0,0,1,7.773,9.545Z" transform="translate(0 0)"/></g></svg>